<svg xmlns="http://www.w3.org/2000/svg" viewBox="0 0 310.67 401.31" version="1.0"><defs><filter id="a" height="1.169" width="1.224" y="-.084" x="-.112"><feGaussianBlur stdDeviation="12.537"/></filter></defs><path style="filter:url(#a);fill:#000" d="M1404.6 215.25v15.28h-14.4v142.59h-14.5v-15.28h-58v51.96h10.6v19.52l15.4.03v35.54h15.5v31.84h15.5v29.33h15.5v45.76H1540v.06h16.5v-40.82h15.5V485.2h14.4V361.91H1572v-16.75h-15.5v-12.8h-31v-15.28H1478v-15.29h-25.8v-71.86h-14.5v-14.68h-33.1z" transform="translate(-1291.72 -185.571)"/><path style="fill:#000" d="M1403.2 215.57v15.64h-14.9v145.84h-14.9v-15.63h-59.6v53.15h10.8v19.97l15.9.03v36.35h15.9v32.56h16v30h15.9v46.8h153.9v.07h17.1v-41.76h15.9v-46.9h14.8v-126.1h-14.8v-17.14h-15.9v-13.09h-31.9v-15.63h-48.9V304.1H1452v-73.51h-14.9v-15.02h-33.9z" transform="translate(-1297.72 -199.571)"/><path style="fill:#fff" d="M1403.6 219.77v15.29h-14.4v142.59h-14.5v-15.29h-58.1v51.97h10.6v19.52l15.4.03v35.54h15.6v31.84h15.5v29.32h15.5v45.76h149.7v.07h16.6v-40.83h15.5v-45.85h14.4V366.44H1571v-16.75h-15.5v-12.8h-31V321.6h-47.6v-15.28h-25.7v-71.87h-14.5v-14.68h-33.1z" transform="translate(-1297.72 -199.571)"/><path style="fill:#000" d="M1405.5 224.42v15h-14v139.94h-14.1v-15h-56.2v51h10.3v19.16l14.9.03v34.87h15v31.25h15.1v28.79h15v44.9h145v.06h16v-40.06h15v-45h13.9v-121h-13.9v-16.44h-15v-12.56h-30v-15h-46.1v-15h-24.9v-70.53h-14v-14.41h-32zm.7 15.35h30.3v144.65h15v-60h24.9v60.82h15.1v-44.88h30v59.16h15v-45.16h15v15h14.7v115h-14.7v45h-15v30.06h-129v-35h-15v-30.03h-15.1v-30.03h-15v-34.9h-15v-15l-10.9-.04v-34.06h40v16.91h15v42.15h14.7V239.77z" transform="translate(-1297.72 -199.571)"/></svg>